<svg xmlns="http://www.w3.org/2000/svg" viewBox="0 0 888 158" role="img" aria-label="CO2Trace"><title>CO2Trace</title><path id="wordmark" fill="currentColor" fill-rule="evenodd" d="M60.00 132.81C59.36 132.74 57.26 132.51 55.33 132.30C42.64 130.95 31.06 125.32 21.46 115.84C18.76 113.17 15.87 109.49 14.24 106.67C12.98 104.48 10.00 98.39 10.00 98.01C10.00 97.84 9.79 97.20 9.53 96.59C8.36 93.84 7.15 88.51 6.67 83.93C5.63 73.95 7.39 63.37 11.56 54.69C15.31 46.89 19.32 41.65 25.44 36.55C27.78 34.60 31.68 31.92 33.33 31.12C33.61 30.98 34.51 30.48 35.33 30.01C37.10 28.99 41.15 27.27 43.50 26.54C44.42 26.26 45.69 25.86 46.33 25.65C50.50 24.31 57.62 23.34 63.33 23.34C79.88 23.34 92.87 28.28 103.25 38.51C105.13 40.37 106.67 42.10 106.67 42.38C106.67 42.93 102.75 46.84 97.00 52.00C94.89 53.90 92.84 55.80 92.43 56.22C92.03 56.65 91.65 57.00 91.60 57.00C91.54 57.00 90.45 56.00 89.17 54.78C81.13 47.16 73.76 44.00 64.00 44.00C55.01 44.00 47.18 46.98 40.98 52.75C39.59 54.04 36.79 57.49 35.76 59.17C31.74 65.74 29.93 73.67 30.67 81.44C31.64 91.57 35.95 99.56 43.62 105.46C45.50 106.91 46.32 107.41 49.96 109.31C52.81 110.80 58.91 111.98 63.87 111.99C70.49 112.01 75.82 110.60 81.73 107.26C83.38 106.33 87.28 103.29 89.50 101.20C90.78 99.99 91.93 99.04 92.06 99.09C92.41 99.22 102.97 108.64 105.25 110.86C106.40 111.97 107.33 113.08 107.33 113.31C107.33 113.54 105.57 115.48 103.42 117.62C94.71 126.24 85.18 130.85 73.00 132.32C69.81 132.71 61.77 133.01 60.00 132.81ZM167.83 132.81C167.28 132.74 165.26 132.51 163.33 132.31C159.11 131.88 153.86 130.66 151.07 129.47C150.47 129.21 149.82 129.00 149.63 129.00C149.07 129.00 143.02 125.99 140.33 124.38C129.30 117.74 120.66 107.06 116.96 95.50C111.76 79.23 114.01 62.27 123.22 48.33C130.54 37.26 142.72 28.71 155.67 25.56C163.79 23.58 169.45 23.06 176.76 23.63C185.73 24.33 191.57 25.80 198.17 29.02C205.31 32.51 208.30 34.62 213.67 39.99C222.07 48.40 225.87 55.81 228.39 68.67C229.63 75.04 229.14 86.91 227.39 92.50C227.22 93.05 226.81 94.48 226.49 95.67C225.98 97.54 222.49 105.21 221.25 107.16C213.89 118.79 200.33 128.35 187.18 131.19C181.72 132.37 171.12 133.26 167.83 132.81ZM471.33 132.81C470.88 132.74 469.22 132.51 467.67 132.31C460.17 131.34 453.06 127.64 449.01 122.61C443.93 116.31 442.68 107.41 445.74 99.33C447.87 93.74 453.81 88.77 461.50 86.17C467.76 84.06 468.62 83.96 483.77 83.77C495.72 83.62 497.74 83.52 497.91 83.09C498.22 82.28 497.01 77.29 496.09 75.59C494.27 72.23 491.14 69.99 486.35 68.62C484.62 68.13 483.05 68.00 478.77 68.00C473.27 68.00 470.77 68.37 466.50 69.81C464.42 70.51 456.77 74.23 456.50 74.67C456.14 75.25 455.09 75.02 454.59 74.25C454.32 73.84 453.61 72.60 453.01 71.50C452.40 70.40 451.46 68.68 450.90 67.68C448.68 63.64 447.67 61.54 447.67 60.97C447.67 60.59 448.37 59.95 449.58 59.24C451.91 57.88 457.00 55.39 458.26 55.00C458.76 54.84 459.99 54.40 461.00 54.02C463.48 53.08 466.11 52.43 470.67 51.61C475.79 50.68 487.58 50.61 492.17 51.48C504.10 53.72 512.81 59.48 516.98 67.90C517.54 69.03 518.00 70.12 518.00 70.30C518.00 70.49 518.21 71.14 518.46 71.74C520.28 76.02 520.67 82.58 520.67 109.12C520.67 130.39 520.65 130.99 520.02 131.32C519.62 131.54 515.93 131.67 510.33 131.67C504.74 131.67 501.04 131.54 500.64 131.32C500.06 131.01 500.00 130.59 500.00 127.15C500.00 122.88 499.82 122.61 498.15 124.36C495.46 127.19 490.38 130.15 486.36 131.23C482.00 132.41 473.97 133.26 471.33 132.81ZM576.50 132.83C576.13 132.77 574.26 132.54 572.33 132.33C564.32 131.43 558.30 128.98 551.50 123.86C543.85 118.10 538.91 110.43 536.54 100.67C533.94 89.90 536.34 77.72 542.90 68.39C545.89 64.14 551.50 59.14 556.00 56.71C560.98 54.02 564.20 52.84 570.17 51.49C574.18 50.59 584.60 50.65 589.18 51.61C597.87 53.43 604.42 56.84 610.00 62.44C612.61 65.06 614.68 67.73 614.66 68.47C614.65 68.77 602.10 77.44 600.87 78.00C600.66 78.09 600.07 78.46 599.55 78.81L598.60 79.45L596.47 77.09C591.38 71.46 586.19 69.00 579.40 69.00C569.30 69.00 561.81 74.59 558.59 84.55C557.96 86.51 557.86 87.56 557.86 92.00C557.87 97.73 558.28 99.65 560.38 103.73C561.66 106.21 566.07 110.78 568.33 111.95C573.10 114.42 579.02 115.25 584.19 114.17C589.28 113.11 592.73 110.83 597.28 105.52C598.68 103.89 598.71 103.88 599.60 104.39C600.09 104.68 601.38 105.40 602.46 105.99C603.53 106.58 605.18 107.52 606.11 108.07C607.56 108.92 609.94 110.25 612.80 111.81C614.31 112.63 615.00 113.18 615.00 113.56C615.00 114.75 612.22 118.51 608.87 121.86C602.88 127.83 596.78 130.82 587.83 132.17C584.78 132.63 577.71 133.04 576.50 132.83ZM663.67 132.81C655.89 131.95 654.11 131.62 649.62 130.21C642.98 128.12 634.66 122.08 630.03 116.00C626.83 111.79 625.44 109.15 623.70 104.00C622.84 101.44 622.01 95.39 622.00 91.65C621.99 78.87 627.49 67.37 637.21 59.88C642.78 55.58 647.92 53.26 655.83 51.48C659.57 50.64 670.39 50.63 674.00 51.46C679.94 52.83 684.29 54.55 688.33 57.14C693.80 60.64 699.73 67.34 702.37 73.01C705.28 79.24 706.83 87.64 706.37 94.67L706.17 97.83L675.35 97.92C656.19 97.97 644.41 98.12 644.21 98.32C644.00 98.53 644.10 99.16 644.48 100.07C644.81 100.86 645.32 102.10 645.61 102.83C647.30 107.06 652.02 111.25 657.33 113.25C661.96 114.99 669.13 115.46 674.50 114.37C677.59 113.75 681.76 112.26 682.69 111.46C682.98 111.21 683.33 111.00 683.47 111.00C683.60 111.00 684.81 110.17 686.15 109.17C687.49 108.16 688.70 107.33 688.83 107.33C689.26 107.33 701.00 118.73 701.00 119.14C701.00 119.36 700.06 120.47 698.92 121.60C692.95 127.51 685.86 130.86 676.51 132.20C673.08 132.69 665.72 133.04 663.67 132.81ZM240.78 131.06C240.45 130.74 240.33 129.43 240.33 126.17C240.33 121.84 240.36 121.69 241.21 120.67C242.04 119.68 249.98 112.27 258.17 104.84C272.93 91.44 275.01 88.86 274.99 83.91C274.97 77.80 269.83 74.51 262.08 75.66C258.05 76.25 255.61 77.48 252.34 80.56C250.79 82.02 249.49 82.98 249.25 82.87C249.02 82.75 248.38 82.39 247.83 82.05C247.28 81.72 245.63 80.80 244.17 80.00C242.70 79.20 240.75 78.14 239.83 77.63C238.92 77.13 238.12 76.49 238.06 76.21C237.91 75.49 240.28 72.46 242.39 70.65C246.60 67.06 250.63 65.07 257.00 63.46C259.00 62.96 260.70 62.83 265.50 62.84C272.56 62.85 274.35 63.18 280.50 65.60C281.23 65.89 282.07 66.32 282.36 66.56C282.65 66.80 282.99 67.00 283.12 67.00C283.63 67.00 286.93 69.72 287.92 70.95C289.21 72.56 290.76 75.61 291.46 77.95C292.94 82.85 291.51 89.78 287.90 95.31C286.21 97.90 275.46 108.35 266.03 116.57C265.36 117.15 264.99 117.72 265.13 117.95C265.31 118.23 269.17 118.33 279.69 118.33L294.00 118.33L294.00 124.79L294.00 131.26L280.58 131.46C259.78 131.78 241.32 131.60 240.78 131.06ZM327.42 131.41C327.09 131.19 326.98 121.88 326.92 87.48L326.83 43.83L310.02 43.75C297.07 43.68 293.14 43.57 292.94 43.25C292.58 42.68 292.60 25.75 292.96 25.52C293.16 25.40 378.36 25.21 383.59 25.32C383.92 25.33 383.99 27.27 383.92 34.42L383.83 43.50L367.36 43.59C356.37 43.64 350.75 43.79 350.47 44.03C350.12 44.31 350.06 52.80 350.15 87.49C350.20 111.19 350.16 130.75 350.04 130.94C349.78 131.36 328.03 131.81 327.42 131.41ZM389.12 131.41C388.83 131.23 388.71 121.01 388.62 91.94C388.56 70.36 388.61 52.61 388.73 52.49C388.95 52.27 408.71 52.26 408.93 52.48C409.00 52.55 409.14 54.95 409.24 57.81C409.35 60.66 409.53 63.00 409.64 63.00C409.76 63.00 410.64 62.11 411.60 61.01C413.86 58.45 416.91 56.12 419.83 54.73C424.31 52.61 428.86 51.46 434.17 51.11C436.62 50.95 437.25 51.00 437.59 51.41C437.91 51.79 437.99 54.22 437.92 61.54L437.83 71.17L433.50 71.23C429.30 71.30 425.73 71.82 423.33 72.73C417.93 74.77 413.57 79.68 411.57 86.00C410.91 88.07 410.87 89.08 410.75 109.50C410.68 121.23 410.52 130.93 410.39 131.06C410.08 131.37 389.59 131.71 389.12 131.41ZM485.83 116.45C490.63 114.91 494.26 112.42 496.12 109.36C497.63 106.88 498.03 105.04 497.93 100.98L497.83 97.17L488.00 97.07C474.74 96.95 471.83 97.55 468.42 101.12C466.74 102.88 466.00 104.80 466.00 107.42C466.01 112.32 469.99 116.34 475.50 117.03C478.34 117.39 483.87 117.08 485.83 116.45ZM179.17 111.34C186.18 109.83 190.89 107.37 195.60 102.75C199.29 99.13 201.90 94.76 203.41 89.67C203.71 88.66 204.13 87.23 204.35 86.50C204.57 85.77 204.82 82.59 204.91 79.43C205.08 73.36 204.78 70.97 203.29 66.51C200.04 56.87 192.56 49.11 183.33 45.85C180.47 44.84 175.34 44.00 172.01 44.00C159.25 44.00 148.01 50.81 142.57 61.83C139.86 67.31 139.19 69.50 138.63 74.58C138.30 77.57 138.30 79.10 138.64 82.08C139.04 85.68 140.10 90.15 140.71 90.82C140.87 90.99 141.00 91.34 141.00 91.59C141.00 92.42 143.36 96.79 145.04 99.05C147.37 102.20 150.71 105.22 154.09 107.25C155.70 108.21 157.20 109.00 157.44 109.00C157.67 109.00 158.01 109.13 158.18 109.29C158.58 109.64 162.19 110.83 164.83 111.47C167.89 112.21 175.45 112.14 179.17 111.34ZM684.32 83.85C684.60 83.51 684.62 83.19 684.36 82.71C684.16 82.34 684.00 81.74 684.00 81.37C684.00 80.99 683.76 80.12 683.46 79.43C681.14 74.03 677.69 70.58 672.83 68.79C667.72 66.90 661.54 66.89 656.50 68.77C652.51 70.25 648.61 73.53 646.46 77.21C645.35 79.09 643.90 83.26 644.13 83.87C644.41 84.57 683.73 84.56 684.32 83.85Z"/><path id="footprints" fill="currentColor" fill-rule="evenodd" d="M789.76 151.20C787.39 150.32 786.47 149.76 784.64 148.10C781.76 145.50 779.31 141.15 777.53 135.50C776.98 133.74 774.93 127.75 774.10 125.50C773.56 124.00 771.68 120.18 770.01 117.17C768.92 115.21 767.70 113.27 762.84 105.83C758.24 98.79 756.56 95.50 755.62 91.67C753.85 84.45 755.99 77.80 762.18 71.29C767.96 65.21 773.91 61.31 781.33 58.76C789.61 55.91 797.09 57.52 799.81 62.73C801.99 66.90 802.49 70.50 801.47 74.57C800.52 78.34 798.94 80.84 794.20 86.00C790.99 89.50 788.25 93.25 786.96 95.91C785.89 98.11 785.87 98.28 785.87 102.50C785.88 106.19 785.99 107.10 786.61 108.61C788.50 113.18 791.51 116.58 798.01 121.50C802.91 125.20 805.10 127.41 806.77 130.30C808.59 133.46 809.13 135.47 809.12 139.00C809.12 141.71 808.99 142.44 808.23 144.07C806.63 147.54 803.49 150.25 799.71 151.44C797.02 152.28 792.39 152.17 789.76 151.20ZM831.17 125.99C826.98 125.41 822.13 121.92 819.97 117.93C818.86 115.88 818.83 115.74 818.84 112.00C818.86 108.34 818.91 108.07 819.95 106.01C821.79 102.37 824.08 99.93 829.33 96.00C839.74 88.21 842.84 83.10 842.16 74.86C841.79 70.30 839.98 67.22 833.85 60.67C830.20 56.76 827.63 52.83 826.46 49.33C826.01 48.00 825.85 46.59 825.87 44.17C825.89 41.13 825.99 40.63 826.96 38.60C828.17 36.08 830.47 33.77 832.95 32.60C834.30 31.97 835.07 31.87 838.83 31.87C842.82 31.86 843.43 31.94 846.45 32.93C855.03 35.74 862.56 41.02 867.58 47.75C871.26 52.68 872.63 56.26 872.65 61.00C872.68 66.16 870.36 72.56 866.36 78.32C858.45 89.73 854.23 97.56 851.35 106.17C848.84 113.67 848.73 113.96 847.25 116.74C843.56 123.69 837.93 126.92 831.17 125.99ZM748.76 75.03C746.70 73.54 745.78 70.37 746.82 68.36C747.52 67.01 748.74 66.80 750.41 67.74C752.36 68.83 753.71 70.64 753.91 72.45C754.28 75.75 751.61 77.09 748.76 75.03ZM755.93 67.06C754.54 66.90 752.22 64.13 751.75 62.07C751.05 59.04 752.15 57.00 754.48 57.00C756.54 57.00 758.18 58.37 759.42 61.11C760.22 62.89 760.15 64.29 759.18 65.71C758.36 66.93 757.57 67.26 755.93 67.06ZM763.14 59.37C761.57 58.42 760.13 56.46 759.49 54.43C759.01 52.88 758.98 52.38 759.32 51.24C760.27 48.08 763.35 46.94 765.54 48.94C766.81 50.09 767.71 51.44 768.24 52.99C769.81 57.47 766.60 61.48 763.14 59.37ZM773.93 54.22C771.25 53.01 769.00 48.84 769.00 45.08C769.00 41.53 770.69 39.83 774.08 39.96C776.57 40.06 780.00 45.60 780.00 49.52C780.00 52.61 776.45 55.36 773.93 54.22ZM789.23 51.99C787.40 51.44 785.01 49.29 783.94 47.21C782.23 43.88 781.67 39.99 782.49 37.13C783.12 34.96 783.55 34.35 785.47 32.95C788.38 30.82 792.99 32.52 795.10 36.50C797.07 40.22 797.68 46.04 796.36 48.60C794.83 51.58 792.13 52.87 789.23 51.99ZM875.26 49.42C873.85 47.80 873.69 46.54 874.65 44.44C875.34 42.91 877.66 40.99 878.80 41.01C879.61 41.02 880.74 41.88 881.28 42.91C882.64 45.45 879.77 50.00 876.81 50.00C876.24 50.00 875.54 49.74 875.26 49.42ZM869.83 41.02C868.46 40.46 867.86 39.38 867.86 37.50C867.86 35.98 868.04 35.44 869.10 33.91C871.18 30.89 872.98 30.36 875.17 32.13C876.09 32.88 876.17 33.10 876.17 35.08C876.17 37.06 876.07 37.34 874.93 38.74C873.75 40.17 871.92 41.36 870.95 41.31C870.70 41.30 870.20 41.17 869.83 41.02ZM861.10 34.01C859.63 33.12 859.00 31.73 859.00 29.43C859.01 27.12 860.24 24.67 862.23 23.04C863.95 21.62 865.29 21.65 866.92 23.14L868.17 24.28L868.17 27.08C868.17 29.64 868.09 29.99 867.23 31.12C865.89 32.87 865.00 33.65 863.71 34.19C862.30 34.79 862.38 34.79 861.10 34.01ZM849.99 28.25C848.17 27.33 847.37 25.86 847.35 23.40C847.32 19.80 849.41 16.16 852.39 14.64C853.81 13.91 854.47 13.99 855.82 15.05C859.57 18.00 858.08 25.91 853.30 28.35C851.72 29.16 851.79 29.16 849.99 28.25ZM834.17 26.20C830.51 24.60 829.27 20.13 830.82 14.17C833.05 5.61 841.39 3.39 844.47 10.54C845.42 12.73 845.12 18.23 843.92 20.68C841.59 25.45 837.61 27.71 834.17 26.20Z"/></svg>